<?xml version="1.0" encoding="UTF-8"?>
<svg xmlns="http://www.w3.org/2000/svg" width="1200" height="630" viewBox="0 0 1200 630">
  <defs>
    <radialGradient id="bg" cx="25%" cy="30%" r="90%">
      <stop offset="0" stop-color="#0E1630"/>
      <stop offset="0.45" stop-color="#070A12"/>
      <stop offset="1" stop-color="#05060C"/>
    </radialGradient>
    <linearGradient id="acc" x1="0" y1="0" x2="1" y2="0">
      <stop offset="0" stop-color="#29F5A6"/>
      <stop offset="0.55" stop-color="#00E5FF"/>
      <stop offset="1" stop-color="#7C4DFF"/>
    </linearGradient>
    <pattern id="hex" width="72" height="62" patternUnits="userSpaceOnUse">
      <path d="M36 2 L70 20 L70 42 L36 60 L2 42 L2 20 Z" fill="none" stroke="rgba(255,255,255,0.10)" stroke-width="2"/>
    </pattern>
    <filter id="soft" x="-20%" y="-20%" width="140%" height="140%">
      <feGaussianBlur stdDeviation="6" result="b"/>
      <feMerge>
        <feMergeNode in="b"/>
        <feMergeNode in="SourceGraphic"/>
      </feMerge>
    </filter>
  </defs>

  <rect width="1200" height="630" fill="url(#bg)"/>
  <rect width="1200" height="630" fill="url(#hex)" opacity="0.55"/>

  <g filter="url(#soft)">
    <path d="M-40 520 C220 360 420 340 700 520" fill="none" stroke="url(#acc)" stroke-width="10" opacity="0.85"/>
    <path d="M520 120 C760 40 980 70 1250 220" fill="none" stroke="url(#acc)" stroke-width="8" opacity="0.65"/>
  </g>

  <rect x="86" y="110" width="1028" height="200" rx="20" fill="rgba(14,22,48,0.68)" stroke="rgba(120,180,255,0.20)"/>
  <text x="130" y="190" font-family="Inter,system-ui,-apple-system,Segoe UI,Roboto,Helvetica,Arial,'PingFang SC','Microsoft YaHei',sans-serif" font-size="50" font-weight="800" fill="#EAF1FF">OpenClaw 实操</text>
  <text x="130" y="250" font-family="Inter,system-ui,-apple-system,Segoe UI,Roboto,Helvetica,Arial,'PingFang SC','Microsoft YaHei',sans-serif" font-size="26" font-weight="500" fill="rgba(234,241,255,0.78)">Agents · Workflow · Skills</text>

  <rect x="86" y="490" width="420" height="64" rx="16" fill="rgba(0,0,0,0.26)" stroke="rgba(41,245,166,0.28)"/>
  <text x="120" y="532" font-family="JetBrains Mono,ui-monospace,SFMono-Regular,Menlo,Monaco,Consolas,'Liberation Mono','Courier New',monospace" font-size="20" fill="#96A6D6">cover-05.svg</text>
</svg>
